<?xml version="1.0" encoding="UTF-8"?><svg id="Capa_1" xmlns="http://www.w3.org/2000/svg" viewBox="0 0 476.09 41.49"><defs><style>.cls-1{stroke-dasharray:0 0 2.98 2.98;}.cls-1,.cls-2{fill:none;stroke:#252d38;stroke-width:2px;}.cls-1,.cls-2,.cls-3{stroke-miterlimit:10;}.cls-3{fill:#e5e5e5;stroke:#0df7a3;stroke-width:3px;}.cls-4{fill:#0df7a3;}.cls-4,.cls-5,.cls-6{stroke-width:0px;}.cls-5{fill:#252d38;}.cls-6{fill:#fff;}</style></defs><line class="cls-2" x1="21.37" y1="22.08" x2="22.87" y2="22.08"/><line class="cls-1" x1="25.85" y1="22.08" x2="454.12" y2="22.08"/><line class="cls-2" x1="455.61" y1="22.08" x2="457.11" y2="22.08"/><circle class="cls-3" cx="451.38" cy="20.57" r="15.05"/><circle class="cls-3" cx="306.87" cy="20.57" r="15.05"/><circle class="cls-3" cx="162.14" cy="20.57" r="15.05"/><path class="cls-5" d="M164.6,16.27c0-1.34-.58-2-1.74-2-.65,0-1.13.23-1.43.68-.3.46-.47,1.17-.5,2.13h-4.08c.1-2.1.73-3.68,1.91-4.74,1.17-1.06,2.66-1.59,4.45-1.59s3.29.47,4.24,1.42c.95.95,1.43,2.18,1.43,3.69,0,1.68-.64,3.32-1.93,4.93-1.29,1.61-2.83,2.96-4.62,4.07h6.82v3.37h-12.32v-3.13c5.18-3.7,7.77-6.64,7.77-8.83Z"/><path class="cls-5" d="M310.66,11c.86.42,1.52.99,1.97,1.71s.67,1.54.67,2.46c0,1.12-.29,2.03-.87,2.71-.58.68-1.3,1.12-2.16,1.3v.12c2.23.72,3.35,2.11,3.35,4.18,0,.99-.23,1.88-.68,2.65-.46.77-1.12,1.38-1.99,1.81s-1.92.65-3.14.65c-1.99,0-3.57-.49-4.73-1.47-1.17-.98-1.8-2.47-1.89-4.47h4.08c.03.77.24,1.37.64,1.81.39.44.96.66,1.71.66.6,0,1.08-.18,1.43-.54s.53-.82.53-1.39c0-1.42-1.03-2.13-3.08-2.13h-.78v-3.4h.76c1.84.03,2.76-.63,2.76-1.98,0-.59-.16-1.04-.48-1.36s-.75-.48-1.28-.48c-.59,0-1.05.2-1.39.6-.34.4-.54.93-.59,1.6h-4.08c.08-1.83.65-3.23,1.71-4.21,1.06-.98,2.54-1.47,4.45-1.47,1.21,0,2.24.21,3.1.62Z"/><path class="cls-5" d="M443.66,25.24v-3.5l7.9-10.83h4.5v10.68h2.08v3.64h-2.08v3.18h-4.23v-3.18h-8.17ZM452.17,15.76l-4.25,5.84h4.25v-5.84Z"/><circle class="cls-4" cx="22.87" cy="20.57" r="15.05"/><path class="cls-6" d="M18.67,15.61v-3.91h6.99v17.28h-4.4v-13.37h-2.59Z"/></svg>