<?xml version="1.0" encoding="UTF-8"?><svg id="Capa_1" xmlns="http://www.w3.org/2000/svg" viewBox="0 0 156.23 80.95"><defs><style>.cls-1{stroke:#252d38;stroke-miterlimit:10;}.cls-1,.cls-2,.cls-3{fill:#252d38;}.cls-2{fill-rule:evenodd;}.cls-2,.cls-4,.cls-3{stroke-width:0px;}.cls-4{fill:#0df7a3;}</style></defs><path class="cls-2" d="M134.75,56.73c-2.37.07-4.31,2.07-4.33,4.45-.02,2.39,1.89,4.26,4.26,4.18s4.31-2.06,4.33-4.45c.02-2.38-1.89-4.26-4.27-4.18h0Z"/><path class="cls-4" d="M148.04,48.44c-3.4-3.12-8.25-4.48-13.32-3.71-9.82,1.48-17.87,10.36-17.94,19.8-.03,4.29,1.6,8.16,4.58,10.91,2.77,2.55,6.52,3.92,10.56,3.92.91,0,1.83-.07,2.76-.21,9.82-1.48,17.87-10.36,17.94-19.8.03-4.29-1.6-8.16-4.58-10.91ZM148.07,59.06c-.05,6.79-5.89,13.2-13.03,14.27-3.62.55-7.08-.4-9.47-2.61-2.07-1.9-3.19-4.59-3.17-7.57.05-6.8,5.9-13.2,13.03-14.27,3.62-.55,7.08.4,9.47,2.61,2.07,1.9,3.2,4.59,3.17,7.57Z"/><path class="cls-4" d="M131.54,42.21c-2.94.46-5.32.79-7.15.71-1.82-.08-2.06-.47-2.37-3.08-.53-4.48-.79-8.13-3.1-8.71-1.96-.49-4,.55-11.73,5.53-6.43,4.14-9.19,5.64-8.21,9.42.61,2.33,3.48,3.01,6.58,4.04,1.64.55,3.51.97,5.14,1.69.37.16,1.15.71,1.4,1.47,1.22,3.79-.7,14.76-.6,15.06.18.5.7-.02,1.26-1.23,2.2-4.83,3.8-11.38,4.03-14.38.25-3.28-.32-4.54-3.35-5.87-3.15-1.38-5.25-2.24-5.25-2.24,0,0,4.63-3.26,8.82-5.07.48,2.4.97,4.73,2,5.95.63.75,1.54,1.01,3.48.76,3.49-.45,7.32-1.82,9.31-2.9,1.59-.86,1.93-1.47-.27-1.13Z"/><path class="cls-4" d="M126.69,22.61c2.52,0,4.12,2.09,3.69,5.49-.37,2.92-2.38,5.49-4.88,5.41s-4.56-2.69-4.14-5.61c.42-2.93,2.81-5.29,5.33-5.28Z"/><path class="cls-1" d="M90.84,4.34c3.15.02,5.71,2.58,5.71,5.7h0s-.07,51.12-.07,51.12c0,1.56-.63,3.02-1.78,4.09-1.08,1.01-2.49,1.56-3.97,1.55l-57.9-.18c.49-.97.9-1.97,1.23-3l56.69.17c.64,0,1.25-.24,1.72-.68.54-.51.84-1.2.84-1.96l.07-51.11h0c0-1.48-1.15-2.68-2.56-2.69l-81.44-.32c-.64,0-1.25.24-1.72.68-.54.51-.84,1.2-.84,1.96l.2,44.62c-1.44,1.24-1.44,1.42-3.4,3.8l.04-48.43c0-1.56.64-3.02,1.78-4.09,1.08-1.01,2.49-1.56,3.97-1.55l81.44.32Z"/><path class="cls-4" d="M28.38,51.88c-2.53-2.28-6.07-3.23-9.74-2.6-7.31,1.25-13.3,8.28-13.36,15.68-.02,3.5,1.27,6.62,3.65,8.77,1.52,1.37,3.4,2.26,5.46,2.61.66.12,1.34.18,2.03.18.01,0,.02,0,.03,0,0,0,.01,0,.02,0,.72,0,1.46-.06,2.2-.19,7.31-1.25,13.3-8.28,13.36-15.68.03-3.5-1.27-6.62-3.65-8.77ZM18.86,71.49c-2.56.44-4.92-.19-6.64-1.75-.34-.3-.63-.64-.9-1-.8-1.21-1.23-2.68-1.22-4.29.04-4.93,4.05-9.62,8.96-10.46.5-.09,1-.13,1.49-.13,1.84,0,3.51.61,4.8,1.78,1.5,1.36,2.32,3.33,2.3,5.56-.02,3.36-1.9,6.61-4.64,8.6-1.25.83-2.66,1.43-4.14,1.68Z"/><path class="cls-2" d="M18.64,59.81c-1.87.07-3.4,1.7-3.41,3.64-.01,1.94,1.49,3.45,3.36,3.37s3.4-1.7,3.41-3.64c.01-1.94-1.49-3.45-3.36-3.37h0Z"/><path class="cls-3" d="M95.51,52.06c1.68.29,8.93,2.04,9.9,2.41,2.39.93,2.11,2.92.92,4.03-.66.62-10.95,6.89-11.08,7.03s.26-13.47.26-13.47Z"/></svg>