<?xml version="1.0" encoding="UTF-8"?><svg id="Capa_1" xmlns="http://www.w3.org/2000/svg" viewBox="0 0 476.09 41.49"><defs><style>.cls-1{stroke-dasharray:0 0 2.98 2.98;}.cls-1,.cls-2{fill:none;stroke:#252d38;stroke-width:2px;}.cls-1,.cls-2,.cls-3{stroke-miterlimit:10;}.cls-3{stroke:#0df7a3;stroke-width:3px;}.cls-3,.cls-4{fill:#0df7a3;}.cls-4,.cls-5,.cls-6{stroke-width:0px;}.cls-5{fill:#252d38;}.cls-6{fill:#fff;}</style></defs><line class="cls-2" x1="21.37" y1="22.08" x2="22.87" y2="22.08"/><line class="cls-1" x1="25.85" y1="22.08" x2="454.12" y2="22.08"/><line class="cls-2" x1="455.61" y1="22.08" x2="457.11" y2="22.08"/><circle class="cls-3" cx="451.38" cy="20.57" r="15.05"/><circle class="cls-3" cx="306.87" cy="20.57" r="15.05"/><circle class="cls-3" cx="162.14" cy="20.57" r="15.05"/><path class="cls-5" d="M173.67,6.3l-12.88,23.15h-1.96l-3.64-6.53-2.03,1.17-1.17-1.93,5.72-3.37,3.33,5.94,10.24-18.43h2.4Z"/><path class="cls-5" d="M318.32,6.3l-12.88,23.15h-1.96l-3.64-6.53-2.03,1.17-1.17-1.93,5.72-3.37,3.33,5.94,10.24-18.43h2.4Z"/><path class="cls-6" d="M443.66,25.24v-3.5l7.9-10.83h4.5v10.68h2.08v3.64h-2.08v3.18h-4.23v-3.18h-8.17ZM452.17,15.76l-4.25,5.84h4.25v-5.84Z"/><circle class="cls-4" cx="22.87" cy="20.57" r="15.05"/><path class="cls-5" d="M33.51,6.86l-12.88,23.15h-1.96l-3.64-6.53-2.03,1.17-1.17-1.93,5.72-3.37,3.33,5.94L31.12,6.86h2.4Z"/></svg>