<?xml version="1.0" encoding="UTF-8"?><svg id="Capa_1" xmlns="http://www.w3.org/2000/svg" viewBox="0 0 476.09 41.49"><defs><style>.cls-1{fill:#252d38;}.cls-1,.cls-2,.cls-3{stroke-width:0px;}.cls-4{stroke-dasharray:0 0 2.98 2.98;}.cls-4,.cls-5,.cls-6{stroke-miterlimit:10;}.cls-4,.cls-6{fill:none;stroke:#252d38;stroke-width:2px;}.cls-2,.cls-5{fill:#0df7a3;}.cls-5{stroke:#0df7a3;stroke-width:3px;}.cls-3{fill:#fff;}</style></defs><line class="cls-6" x1="19.37" y1="20.75" x2="20.87" y2="20.75"/><line class="cls-4" x1="23.86" y1="20.75" x2="452.12" y2="20.75"/><line class="cls-6" x1="453.62" y1="20.75" x2="455.12" y2="20.75"/><circle class="cls-5" cx="356.37" cy="20.57" r="15.05"/><circle class="cls-5" cx="241.86" cy="20.57" r="15.05"/><circle class="cls-5" cx="122.13" cy="20.57" r="15.05"/><path class="cls-1" d="M132.67,6.3l-12.88,23.15h-1.96l-3.64-6.53-2.03,1.17-1.17-1.93,5.72-3.37,3.33,5.94,10.24-18.43h2.4Z"/><path class="cls-1" d="M252.31,6.3l-12.88,23.15h-1.96l-3.64-6.53-2.03,1.17-1.17-1.93,5.72-3.37,3.33,5.94,10.24-18.43h2.4Z"/><path class="cls-1" d="M366.55,6.3l-12.88,23.15h-1.96l-3.64-6.53-2.03,1.17-1.17-1.93,5.72-3.37,3.33,5.94,10.24-18.43h2.4Z"/><circle class="cls-5" cx="456.6" cy="20.57" r="15.05"/><path class="cls-3" d="M461.96,14.39h-7.77v3.5c.34-.39.82-.7,1.43-.92.61-.22,1.27-.33,1.99-.33,1.16,0,2.13.26,2.91.77.78.51,1.36,1.2,1.74,2.07s.56,1.82.56,2.86c0,1.89-.53,3.39-1.59,4.49-1.06,1.1-2.55,1.65-4.47,1.65-1.3,0-2.44-.23-3.4-.7-.96-.46-1.7-1.11-2.22-1.94s-.8-1.79-.83-2.88h4.08c.08.55.31,1.01.67,1.37.37.36.87.54,1.5.54.73,0,1.28-.24,1.65-.71.37-.47.55-1.1.55-1.88s-.2-1.33-.59-1.74c-.39-.41-.94-.61-1.64-.61-.54,0-.99.12-1.34.35-.36.24-.6.54-.73.92h-4.06v-10.46h11.56v3.67Z"/><circle class="cls-2" cx="22.87" cy="20.57" r="15.05"/><path class="cls-1" d="M33.51,6.86l-12.88,23.15h-1.96l-3.64-6.53-2.03,1.17-1.17-1.93,5.72-3.37,3.33,5.94L31.12,6.86h2.4Z"/></svg>