<?xml version="1.0" encoding="UTF-8"?><svg id="Capa_1" xmlns="http://www.w3.org/2000/svg" viewBox="0 0 73.76 63.23"><defs><style>.cls-1{fill:#252d38;stroke:#252d38;stroke-miterlimit:10;}</style></defs><path class="cls-1" d="M33.07,45.78c-7.38,0-14.75,0-22.13,0-1.62,0-2.01-.4-2.01-2.04,0-9.09,0-18.19,0-27.28,0-1.49.44-1.93,1.92-1.93,12.14,0,24.28,0,36.42.01.57,0,.99-.16,1.43-.51,4.95-3.92,10.21-7.35,15.82-10.26,1.64-.85,3.26-.89,4.81.15,1.52,1.02,2.26,2.49,2.13,4.34-.09,1.25-.71,2.24-1.59,3.1-3.72,3.64-7.71,6.97-11.96,9.98-.46.33-.64.66-.63,1.23.02,7.08.01,14.16.01,21.23,0,1.54-.42,1.97-1.95,1.97-7.42,0-14.84,0-22.26,0ZM54.41,23.89c-.13.02-.18,0-.22.03-2.9,1.66-5.79,3.33-8.68,5.01-.14.08-.28.35-.26.52.2,2.47-1.25,4.12-3.69,4.19-.2,0-.5.2-.57.38-.74,1.86-2.06,3.15-3.82,4.05-2.07,1.07-4.3,1.58-6.6,1.68-1.82.08-3.66-.05-5.49-.12-.69-.03-1.25-.36-1.44-1.07-.19-.7.09-1.25.69-1.65.28-.19.54-.42.8-.65,1.38-1.18,2.25-2.63,2.44-4.46.06-.62.12-1.23.17-1.85.2-2.39,1.39-4.1,3.59-5.02.93-.39,1.96-.55,3.05-.84.24-1.07.9-2.02,2.07-2.55,1.2-.54,2.36-.35,3.42.25,1.56-1.48,3.06-2.9,4.64-4.41H11.83v25.51h42.58v-19.02ZM43.69,26.66c.2-.1.36-.18.52-.26,6.93-3.53,13.31-7.87,19.19-12.96,1.58-1.36,3.1-2.79,4.59-4.24,1.08-1.04.73-2.64-.62-3.11-.65-.23-1.2.02-1.76.31-7.31,3.81-13.99,8.51-20.12,14.02-1.27,1.15-2.49,2.35-3.76,3.55.68.93,1.31,1.79,1.96,2.69ZM28.41,36.94c.69,0,1.28.04,1.86,0,2.21-.17,4.35-.56,6.27-1.78,1.06-.67,1.75-1.61,1.98-2.84.05-.25-.02-.6-.17-.81-.92-1.31-1.87-2.6-2.82-3.89-.13-.17-.32-.38-.51-.41-1.87-.33-4.32.65-4.44,2.95-.12,2.41-.45,4.79-2.16,6.78ZM37.89,24c-.25.2-.56.33-.59.51-.05.28-.02.66.14.88,1.17,1.66,2.38,3.3,3.58,4.95.29.4.65.62,1.1.3.45-.32.37-.73.08-1.14-1.2-1.65-2.38-3.3-3.59-4.94-.16-.22-.44-.35-.72-.56Z"/><path class="cls-1" d="M44.51,54.32v2.84c.75,0,1.5,0,2.24,0,.66,0,1.33-.02,1.99.01.82.04,1.4.66,1.4,1.41,0,.76-.58,1.35-1.39,1.42-.2.02-.41,0-.62,0-10.03,0-20.06,0-30.1,0-1.32,0-2-.49-1.98-1.45.01-.93.67-1.4,1.96-1.4,1.21,0,2.42,0,3.66,0v-2.83c-.27,0-.53,0-.8,0-4.37,0-8.75,0-13.12,0-2.27,0-3.95-1.3-4.41-3.38-.08-.38-.09-.77-.09-1.16,0-12.14,0-24.28,0-36.42,0-2.76,1.74-4.53,4.49-4.53,13.7,0,27.39,0,41.09,0,.62,0,1.19.08,1.56.66.55.86.02,2.01-1,2.14-.29.04-.59.02-.89.02-13.47,0-26.94,0-40.4,0-1.6,0-2.02.42-2.02,2.05,0,11.91,0,23.82,0,35.73,0,1.61.43,2.03,2.04,2.03,16.65,0,33.3,0,49.95,0,1.61,0,2.04-.43,2.04-2.03,0-8.75,0-17.5,0-26.25,0-.3,0-.6.03-.89.1-.74.68-1.22,1.43-1.2.71.02,1.26.52,1.34,1.22.02.18.02.37.02.55,0,8.98,0,17.96,0,26.94,0,2.21-1.23,3.89-3.24,4.37-.48.12-1,.13-1.5.13-4.28,0-8.57,0-12.85,0h-.84ZM41.59,54.37h-16.96v2.75h16.96v-2.75Z"/><path class="cls-1" d="M33.07,50.03c-.53,0-1.06.04-1.58-.01-.73-.07-1.25-.71-1.23-1.41.02-.71.57-1.32,1.3-1.35,1.03-.04,2.06-.04,3.09,0,.73.03,1.28.65,1.29,1.36.02.7-.5,1.34-1.23,1.41-.54.05-1.1.01-1.64,0Z"/></svg>