<?xml version="1.0" encoding="UTF-8"?><svg id="Capa_1" xmlns="http://www.w3.org/2000/svg" viewBox="0 0 73.76 63.23"><defs><style>.cls-1{fill:#252d38;stroke-width:0px;}</style></defs><path class="cls-1" d="M46.78,62.33H12.68c-1.42-.48-1.91-1.49-1.91-2.96.03-13.58.02-27.17.02-40.75,0-1.91.89-2.81,2.77-2.81,3.59,0,7.18,0,10.77,0,.21,0,.42,0,.66,0v-.72c0-3.52.04-7.04-.02-10.56-.02-1.47.5-2.48,1.91-2.96h34.11c1.39.47,1.91,1.44,1.91,2.9-.02,13.92-.01,27.84-.01,41.76,0,1.9-.89,2.81-2.77,2.81-3.59,0-7.18,0-10.77,0h-.66v.72c0,3.2-.04,6.41.02,9.61.02,1.47-.49,2.48-1.91,2.96ZM15.56,20.59v36.95h28.35V20.59H15.56ZM58.11,44.27V6.36h-23.56c.25.2.41.33.57.46,4.07,3.06,8.13,6.13,12.22,9.17.94.7,1.35,1.54,1.35,2.72-.03,8.28-.01,16.57-.01,24.85v.72h9.43ZM29.76,15.77h9.38c-3.17-2.38-6.24-4.69-9.38-7.04v7.04Z"/><path class="cls-1" d="M29.7,39.55c-2.29,0-4.58,0-6.86,0-1.6,0-2.58-.98-2.58-2.59,0-3.02,0-6.05,0-9.07,0-1.61.97-2.58,2.58-2.58,4.6,0,9.19,0,13.79,0,1.6,0,2.58.97,2.58,2.58,0,3.02,0,6.05,0,9.07,0,1.61-.98,2.58-2.58,2.58-2.31,0-4.62,0-6.92,0ZM25.02,34.76h9.42v-4.67h-9.42v4.67Z"/><path class="cls-1" d="M29.73,49.04c2.31,0,4.61,0,6.92,0,1.49,0,2.55.99,2.55,2.37,0,1.38-1.06,2.37-2.55,2.37-4.61,0-9.23,0-13.84,0-1.49,0-2.55-.99-2.55-2.37,0-1.38,1.06-2.37,2.55-2.37,2.31,0,4.61,0,6.92,0Z"/></svg>