<?xml version="1.0" encoding="UTF-8"?><svg id="Capa_1" xmlns="http://www.w3.org/2000/svg" viewBox="0 0 197.95 56.75"><defs><style>.cls-1,.cls-2,.cls-3{fill:#252d38;}.cls-1,.cls-2,.cls-4{stroke-width:0px;}.cls-2{fill-rule:evenodd;}.cls-3{stroke:#252d38;stroke-miterlimit:10;}.cls-4{fill:#fff;}</style></defs><path class="cls-1" d="M113.26,21.06v27.87h-8.97v-27.87h8.97Z"/><path class="cls-1" d="M135.59,34.6l10.58,14.33h-10.79l-8.32-12.08v12.08h-8.97v-27.87h8.97v11.77l8.4-11.77h10.7l-10.58,13.54Z"/><path class="cls-1" d="M157.57,27.99v3.46h8.89v6.57h-8.89v3.94h10.1v6.97h-19.06v-27.87h19.06v6.93h-10.1Z"/><path class="cls-1" d="M191.88,45.04c-.85,1.29-2.08,2.3-3.7,3.05-1.62.75-3.54,1.12-5.78,1.12-3.42,0-6.24-.78-8.46-2.34-2.22-1.56-3.43-3.85-3.62-6.87h9.53c.13,1.6.86,2.4,2.18,2.4.46,0,.83-.12,1.11-.35s.42-.58.42-1.02c0-.66-.34-1.17-1.03-1.56-.69-.38-1.8-.82-3.33-1.32-1.8-.58-3.31-1.17-4.5-1.77-1.2-.6-2.24-1.5-3.13-2.68-.89-1.18-1.33-2.72-1.33-4.61s.48-3.35,1.43-4.63c.96-1.27,2.26-2.24,3.92-2.89,1.66-.66,3.52-.98,5.59-.98,3.42,0,6.14.77,8.16,2.32,2.02,1.55,3.12,3.78,3.31,6.69h-9.65c-.14-1.47-.75-2.2-1.86-2.2-.38,0-.69.11-.93.33-.24.22-.36.56-.36,1,0,.6.34,1.1,1.03,1.48.69.38,1.76.82,3.21,1.32,1.83.63,3.35,1.25,4.54,1.87,1.2.62,2.25,1.52,3.15,2.72.9,1.19,1.35,2.72,1.35,4.59,0,1.6-.42,3.04-1.27,4.33Z"/><path class="cls-1" d="M94.93,34.71c1.45-.37,2.62-1.11,3.49-2.22.87-1.11,1.31-2.49,1.31-4.11,0-2.36-.83-4.16-2.5-5.39-1.67-1.23-3.96-1.85-6.87-1.85h-14.58v2.36c.71.41,1.39.9,2.01,1.48,2.64,2.42,4.07,5.95,4.05,9.94-.03,5.05-2.43,9.92-6.06,13.23v.85h14.99c3.1,0,5.47-.66,7.13-1.99,1.66-1.33,2.48-3.21,2.48-5.65,0-1.6-.48-3.01-1.43-4.23-.96-1.22-2.3-2.03-4.02-2.42ZM84.75,28.06h3.47c.81,0,1.41.16,1.8.49.39.33.58.83.58,1.52s-.2,1.14-.58,1.46c-.39.32-.99.47-1.8.47h-3.47v-3.94ZM90.63,41.54c-.39.3-.99.45-1.8.45h-4.08v-3.94h4.08c1.59,0,2.38.67,2.38,2.01,0,.68-.2,1.17-.59,1.48Z"/><path class="cls-2" d="M65.42,33.13c-1.86.06-3.39,1.62-3.4,3.5s1.49,3.35,3.35,3.29c1.87-.06,3.39-1.62,3.4-3.5s-1.49-3.35-3.35-3.29h0Z"/><path class="cls-4" d="M75.86,26.61c-2.67-2.45-6.48-3.52-10.47-2.92-7.72,1.16-14.04,8.14-14.1,15.56-.02,3.37,1.25,6.41,3.6,8.57,2.18,2,5.12,3.08,8.3,3.08.71,0,1.44-.05,2.17-.16,7.72-1.16,14.04-8.14,14.1-15.56.02-3.37-1.25-6.41-3.6-8.57ZM75.88,34.96c-.04,5.34-4.63,10.37-10.24,11.21-2.84.43-5.56-.32-7.44-2.05-1.63-1.49-2.51-3.61-2.49-5.95.04-5.34,4.63-10.37,10.24-11.22,2.85-.43,5.56.32,7.44,2.05,1.63,1.49,2.51,3.61,2.49,5.95Z"/><path class="cls-4" d="M62.89,21.72c-2.31.36-4.18.62-5.62.55-1.43-.06-1.62-.37-1.86-2.42-.42-3.52-.62-6.39-2.44-6.85-1.54-.39-3.15.43-9.22,4.34-5.05,3.25-7.22,4.43-6.45,7.4.48,1.83,2.74,2.36,5.17,3.17,1.29.43,2.75.76,4.04,1.33.29.13.91.56,1.1,1.16.96,2.98-.55,11.6-.47,11.84.14.4.55-.02.99-.97,1.73-3.79,2.99-8.95,3.16-11.3.19-2.58-.25-3.57-2.63-4.61-2.48-1.08-4.12-1.76-4.12-1.76,0,0,3.64-2.56,6.93-3.98.37,1.88.77,3.72,1.57,4.67.5.59,1.21.79,2.73.59,2.74-.36,5.75-1.43,7.32-2.28,1.25-.68,1.51-1.16-.21-.89Z"/><path class="cls-4" d="M59.09,6.31c1.98,0,3.23,1.65,2.9,4.31-.29,2.3-1.87,4.32-3.84,4.25s-3.58-2.11-3.25-4.41c.33-2.3,2.21-4.16,4.19-4.15Z"/><path class="cls-3" d="M34.73,11.39c-.02-2.3-1.89-4.17-4.17-4.17h-.01l-18.89.05c-1.14,0-2.21.46-2.99,1.3-.74.79-1.14,1.82-1.13,2.91l.13,16.9c.71-.36,1.44-.66,2.2-.9l-.12-16.02c0-.47.17-.91.5-1.26.37-.39.88-.61,1.43-.61l18.89-.05h0c1.08,0,1.96.84,1.96,1.87l.23,32.9c0,.47-.17.91-.5,1.26-.37.39-.88.61-1.43.61l-7.91.02c-.47.82-1.01,1.6-1.61,2.32l9.53-.03c1.14,0,2.21-.47,2.99-1.3.74-.79,1.14-1.82,1.13-2.91l-.23-32.9Z"/><path class="cls-4" d="M19.82,31.86c-1.98-1.79-4.77-2.54-7.66-2.05-5.74.98-10.45,6.51-10.5,12.32-.02,2.75,1,5.2,2.87,6.89,1.19,1.08,2.67,1.77,4.29,2.05.52.09,1.05.14,1.6.14,0,0,.02,0,.03,0,0,0,0,0,.01,0,.57,0,1.15-.05,1.73-.15,5.74-.98,10.45-6.51,10.5-12.32.02-2.75-1-5.2-2.87-6.89ZM12.34,47.26c-2.01.34-3.86-.15-5.22-1.37-.26-.24-.5-.51-.71-.79-.63-.95-.97-2.11-.96-3.37.03-3.88,3.19-7.56,7.04-8.22.4-.07.79-.1,1.17-.1,1.44,0,2.75.48,3.77,1.4,1.18,1.07,1.82,2.62,1.81,4.37-.02,2.64-1.49,5.19-3.65,6.76-.98.65-2.09,1.12-3.25,1.32Z"/><path class="cls-2" d="M12.16,38.09c-1.13.04-2.05,1.03-2.06,2.2s.9,2.08,2.03,2.04,2.06-1.03,2.06-2.2-.9-2.08-2.03-2.04h0Z"/><path class="cls-1" d="M34.58,29.46c1.32.22,7.02,1.6,7.78,1.9,1.87.73,1.66,2.29.73,3.17-.52.49-8.61,5.42-8.71,5.53s.21-10.59.21-10.59Z"/><path class="cls-1" d="M71.22,6.86l-.97,5.11c-.03.14-.04.28-.04.42,0,.29.08.52.25.69.16.17.43.25.78.25.44,0,.79-.12,1.05-.36.26-.24.43-.57.51-.99l.97-5.11h3.04s-.97,5.11-.97,5.11c-.17.86-.5,1.6-1.01,2.21-.51.61-1.12,1.07-1.85,1.37-.72.31-1.5.46-2.32.46-1.09,0-1.95-.27-2.59-.8s-.95-1.29-.95-2.28c0-.32.03-.65.1-.97l.97-5.11h3.04Z"/><path class="cls-1" d="M85.03,7.54c.54.44.82,1.02.82,1.75,0,.2-.02.39-.06.56-.12.61-.41,1.15-.86,1.62-.46.46-1.04.8-1.76,1l1.46,3.47h-3.35s-1.23-3.26-1.23-3.26l-.61,3.25h-3.05s1.72-9.07,1.72-9.07h4.54c1.04.01,1.84.23,2.38.67ZM80.41,10.79h1.21c.6,0,.94-.25,1.03-.76,0-.04.01-.1.01-.17,0-.19-.06-.34-.18-.44-.12-.11-.31-.16-.56-.16h-1.21s-.31,1.53-.31,1.53Z"/><path class="cls-1" d="M94.33,10.6c-.37.36-.81.6-1.32.72.48.11.84.33,1.1.64.26.32.38.68.38,1.1,0,.14-.02.28-.04.42-.16.79-.56,1.41-1.2,1.84-.64.43-1.49.64-2.54.64h-5.1s1.72-9.07,1.72-9.07h4.96c.89.01,1.58.17,2.07.49s.73.78.73,1.4c0,.1-.02.26-.05.49-.1.53-.34.97-.7,1.34ZM91.42,12.89c0-.32-.23-.49-.7-.49h-1.39s-.25,1.28-.25,1.28h1.39c.28,0,.5-.05.65-.14.15-.1.24-.26.28-.48,0-.04.01-.1.01-.17ZM91.84,9.63c0-.32-.24-.47-.71-.48h-1.18s-.24,1.28-.24,1.28h1.18c.27,0,.49-.05.64-.15.15-.1.24-.26.28-.47.02-.09.03-.14.03-.18Z"/><path class="cls-1" d="M101.51,14.61h-3.24s-.75,1.36-.75,1.36h-3.2s5.29-9.06,5.29-9.06h3.52s1.82,9.07,1.82,9.07h-3.22s-.22-1.38-.22-1.38ZM101.17,12.47l-.39-2.52-1.37,2.52h1.76Z"/><path class="cls-1" d="M114.97,16.01h-3.05s-2.37-4.57-2.37-4.57l-.86,4.56h-3.05s1.72-9.07,1.72-9.07h3.05s2.36,4.64,2.36,4.64l.88-4.63h3.05s-1.72,9.07-1.72,9.07Z"/><path class="cls-4" d="M121.51,13.14l-.54,2.88h-3.05s1.72-9.07,1.72-9.07h4.26c1.04,0,1.84.23,2.38.67.54.44.81,1.03.81,1.79,0,.19-.02.41-.07.67-.11.57-.35,1.09-.73,1.55-.37.46-.86.83-1.47,1.1-.61.27-1.31.41-2.1.41h-1.21ZM123.93,10.07c0-.05.01-.12.02-.2,0-.42-.27-.63-.81-.63h-.87s-.32,1.66-.32,1.66h.87c.63,0,1-.27,1.11-.83Z"/><path class="cls-4" d="M131.56,6.98l-.97,5.11c-.03.14-.04.28-.04.42,0,.29.08.52.25.69.16.17.43.25.78.25.44,0,.79-.12,1.05-.36.26-.24.43-.57.51-.99l.97-5.11h3.04s-.97,5.11-.97,5.11c-.17.86-.5,1.6-1.01,2.21-.51.61-1.12,1.07-1.85,1.37-.72.31-1.5.46-2.32.46-1.09,0-1.95-.27-2.59-.8s-.95-1.29-.95-2.28c0-.32.03-.65.1-.97l.97-5.11h3.04Z"/><path class="cls-4" d="M145.45,10.7c-.37.36-.81.6-1.32.72.48.11.84.33,1.1.64.26.32.38.68.38,1.1,0,.14-.02.28-.04.42-.16.79-.56,1.41-1.2,1.84-.64.43-1.49.64-2.54.64h-5.1s1.72-9.07,1.72-9.07h4.96c.89.01,1.58.17,2.07.49s.73.78.73,1.4c0,.1-.02.26-.05.49-.1.53-.34.97-.7,1.34ZM142.55,12.99c0-.32-.23-.49-.7-.49h-1.39s-.25,1.28-.25,1.28h1.39c.28,0,.5-.05.65-.14.15-.1.24-.26.28-.48,0-.04.01-.1.01-.17ZM142.97,9.72c0-.32-.24-.47-.71-.48h-1.18s-.24,1.28-.24,1.28h1.18c.27,0,.49-.05.64-.15.15-.1.24-.26.28-.47.02-.09.03-.15.03-.18Z"/><path class="cls-4" d="M149.58,13.92h2.94s-.4,2.16-.4,2.16h-5.99s1.72-9.07,1.72-9.07h3.05s-1.32,6.92-1.32,6.92Z"/><path class="cls-4" d="M157.86,7.02l-1.72,9.06h-3.05s1.72-9.07,1.72-9.07h3.05Z"/><path class="cls-4" d="M165.97,7.39c.61.3,1.07.71,1.39,1.25.32.54.47,1.17.46,1.88h-3.22c-.08-.3-.24-.54-.49-.7-.24-.17-.54-.25-.89-.25-.51,0-.95.18-1.31.54-.36.36-.6.84-.72,1.44-.04.17-.06.35-.06.55,0,.44.11.79.35,1.05.23.26.56.39,1,.39.35,0,.67-.08.98-.25.3-.17.55-.4.76-.7h3.22c-.41,1.09-1.1,1.95-2.06,2.6s-2.07.97-3.34.97c-.85,0-1.58-.15-2.19-.45-.6-.3-1.06-.72-1.38-1.26-.32-.54-.47-1.17-.47-1.89,0-.34.03-.68.1-1.01.17-.9.51-1.69,1.04-2.39.52-.7,1.19-1.24,1.98-1.63.8-.39,1.69-.58,2.67-.58.84,0,1.57.15,2.18.45Z"/><path class="cls-4" d="M172.64,7.05l-1.72,9.06h-3.05s1.72-9.07,1.72-9.07h3.05Z"/><path class="cls-4" d="M181.66,7.07l-.43,2.25h-2.58s-1.29,6.8-1.29,6.8h-3.05s1.29-6.82,1.29-6.82h-2.56s.43-2.26.43-2.26l8.19.02Z"/><path class="cls-4" d="M192.37,7.09l-4.7,6.3-.51,2.75h-3.05s.51-2.76.51-2.76l-2.28-6.32h3.49s.94,3.22.94,3.22l2.17-3.21h3.44Z"/></svg>