<?xml version="1.0" encoding="UTF-8"?><svg id="Capa_1" xmlns="http://www.w3.org/2000/svg" viewBox="0 0 97.48 111.54"><defs><style>.cls-1{fill:#0df7a3;}.cls-1,.cls-2{stroke-width:0px;}.cls-2{fill:#252d38;}</style></defs><circle class="cls-1" cx="69.05" cy="85.04" r="17.35"/><path class="cls-2" d="M51.02,104.07c-1.15-.49-1.45-1.44-1.45-2.6.02-4.24.02-8.49,0-12.73,0-1.94-.26-3.9-.09-5.83.47-5.48,3-9.9,7.25-13.37.34-.28.62-.78.68-1.22.86-5.47-.28-10.7-2.16-15.79-4.72-12.78-9.52-25.53-14.3-38.28-.86-2.29-3.46-3.52-5.6-2.73-2.06.76-3.34,3.42-2.56,5.63,2.89,8.17,5.83,16.31,8.78,24.46.11.31.51.57.84.74,1.26.63,2.59,1.14,3.82,1.82,1.07.59,1.3,1.71.72,2.67-.54.9-1.62,1.17-2.64.62-6.44-3.47-13.1-3.55-19.88-1.22-1.8.62-3.54,1.47-5.26,2.3-2.2,1.07-3.01,3.51-1.92,5.56,1.07,2.01,3.48,2.69,5.61,1.55,4.62-2.47,9.52-3.03,14.53-1.75,5.19,1.33,8.9,6.49,8.66,11.58-.3,6.15-4.25,10.88-9.96,11.83-4.02.66-7.61-.27-10.57-3.2-1.21-1.19-2.42-2.39-3.67-3.53-.71-.65-.99-1.4-.98-2.34.02-1.16.03-2.33-.07-3.49-.29-3.43-3.42-6.41-6.83-6.55-.18,0-.37.03-.66.05,0,.36,0,.7,0,1.04,0,3.87.02,7.73,0,11.6-.01,2.21.77,4.02,2.2,5.74,3.7,4.44,7.33,8.95,10.86,13.53,2.04,2.65,2.68,5.77,2.16,9.1-.13.84-.24,1.68-.33,2.52-.11,1.04-.5,1.87-1.52,2.29h-1.13c-1.05-.67-1.36-1.61-1.14-2.81.19-1.05.29-2.12.41-3.18.25-2.17-.3-4.16-1.62-5.85-3.54-4.49-7.12-8.96-10.76-13.36-1.73-2.09-2.84-4.4-2.87-7.1-.07-5.12-.04-10.25-.02-15.37,0-1.31.73-2.01,2.06-2.07.5-.02,1,0,1.38,0,.09-1.41.05-2.76.3-4.05.41-2.15,1.71-3.8,3.62-4.83,5.38-2.91,11.05-4.81,17.28-4.54,1,.04,2,.13,3.13.2-.39-1.1-.73-2.09-1.09-3.08-2.33-6.5-4.68-12.99-6.97-19.5-1.63-4.62.79-9.4,5.36-10.73,3.86-1.12,8.07.83,9.67,4.58.96,2.25,1.76,4.56,2.69,7.01.13-.41.21-.67.29-.94.92-3.43,4.05-5.6,7.68-5.34,3.36.24,6.12,2.94,6.52,6.38.06.5.08,1,.08,1.5,0,14.3,0,28.61,0,42.91,0,.94,0,1.88,0,2.81,1.3-.32,2.65-.73,4.02-.96,8.06-1.35,16.06,2.53,19.99,9.63.69,1.24.45,2.31-.63,2.91-.95.53-1.99.16-2.66-1-2.48-4.27-6.12-6.91-11-7.78-8-1.43-16.14,4.17-17.73,12.2-1.93,9.7,5.86,18.94,15.73,18.52,5.5-.23,9.75-2.8,12.7-7.46.12-.19.22-.38.34-.57.68-1.1,1.68-1.46,2.61-.95,1.06.59,1.34,1.67.7,2.82-1.71,3.1-4.09,5.55-7.14,7.34-2.3,1.35-4.78,2.2-7.45,2.5-.18.02-.35.1-.53.16h-3.59c-.18-.05-.35-.13-.53-.15-3.29-.39-6.29-1.54-8.92-3.52-1.39-1.04-2.62-2.3-4.01-3.53,0,1.51-.05,3,.02,4.49.05,1.16-.26,2.08-1.27,2.71h-1.13ZM23.3,59.69c.45,1.61,1.31,3.19,1.22,4.71-.17,2.94,1,4.94,3.23,6.57.2.15.36.35.55.52,2.39,2.28,6.03,2.88,9.1,1.49,2.97-1.34,4.94-4.57,4.81-7.9-.13-3.36-2.23-6.27-5.37-7.39-1.97-.7-4.01-.64-6.06-.52-2.77.16-5.22,1.25-7.48,2.51ZM57.44,47.23c.07,0,.13,0,.2-.01.01-.27.04-.54.04-.82,0-8.51,0-17.03,0-25.54,0-.28,0-.57-.03-.85-.17-1.89-1.64-3.17-3.58-3.11-1.77.06-3.17,1.47-3.22,3.28-.03.94.06,1.89-.02,2.83-.39,4.47.47,8.67,2.27,12.79,1.63,3.73,2.91,7.61,4.34,11.42Z"/><path class="cls-2" d="M65.53,87.74c2.85-2.87,5.6-5.63,8.35-8.39.36-.36.7-.73,1.07-1.06.88-.8,1.93-.82,2.71-.08.78.74.81,1.93,0,2.78-1.11,1.16-2.26,2.28-3.39,3.41-2.33,2.34-4.67,4.67-7.01,7-1.26,1.25-2.19,1.24-3.46-.02-1.31-1.31-2.63-2.62-3.93-3.94-.96-.97-1.05-2.09-.27-2.92.84-.87,1.96-.81,2.98.2.96.95,1.89,1.93,2.94,3.01Z"/><path class="cls-2" d="M87.98,84.72c.03,1.02-.84,1.91-1.91,1.95-.96.04-1.84-.83-1.88-1.85-.04-1.01.71-1.87,1.67-1.91,1.16-.05,2.09.74,2.11,1.81Z"/></svg>